<svg version="1" xmlns="http://www.w3.org/2000/svg" width="266.667" height="266.667" viewBox="0 0 200.000000 200.000000"><path d="M87.4 34.5c-10.9 4.9-18.7 21.8-14.7 31.7l1.5 3.9-4.2 5c-5 6-14 20.1-17.7 27.8-6.2 13.1-7.1 21.3-3.4 31.2 2.4 6.3 5 9.5 10.9 13.4 4.1 2.7 5.3 4.4 3.2 4.6-.5.1-1.4.3-2 .4-.5.1-1.7.3-2.5.4-.9 0-3.1 1.7-5 3.6-5.8 6-5.8 15.3-.1 20.3 2.1 1.7 2.3 2.7 2.1 8.3-.2 3.5-1 8.3-1.8 10.6l-1.5 4.3h87.9l-.3-3.5c-.1-1.9.1-3.7.5-4.1.4-.4.7 0 .7 1 0 .9.7 2.8 1.6 4.1 1.5 2.3 2.3 2.5 9.1 2.5 4.1 0 7.3-.3 7.1-.8-3.5-6.8-7-15-7.8-18.4-.8-3.7-.7-4.5.8-5.8 2-1.7 4.4-7 4.7-10.3.2-3.3-2.6-9.9-5.4-12.8-2.9-2.8-10.7-6.3-12.2-5.4-.5.4-.9.2-.9-.4 0-.5.4-1.1.9-1.3 1.5-.6 6-8.6 6.8-12 .9-4.3 1-15.2.1-20.3-3-16.7-19.5-39.9-34.5-48.7-4.8-2.7-5.2-3.2-4.6-5.6 1.3-4.5.7-14.6-1.1-18-.9-1.7-2.8-3.9-4.2-4.8-3.3-2.2-10.1-2.7-14-.9z"/></svg>